<svg xmlns="http://www.w3.org/2000/svg" viewBox="0 0 900 900" fill="none" role="img" aria-labelledby="title desc" shape-rendering="crispEdges">
  <title id="title">Retro contact panel illustration</title>
  <desc id="desc">Web 1.0 style contact panel with envelope and phone modules.</desc>

  <rect width="900" height="900" fill="#001a66"/>
  <rect width="900" height="900" fill="url(#checker)" opacity="0.24"/>

  <defs>
    <pattern id="checker" width="36" height="36" patternUnits="userSpaceOnUse">
      <rect width="36" height="36" fill="#001a66"/>
      <rect width="18" height="18" fill="#08257f"/>
      <rect x="18" y="18" width="18" height="18" fill="#08257f"/>
      <rect x="6" y="6" width="2" height="2" fill="#00ff66"/>
    </pattern>
  </defs>

  <rect x="120" y="120" width="660" height="660" fill="#c0c0c0" stroke="#ffffff" stroke-width="8"/>
  <rect x="126" y="126" width="648" height="648" fill="none" stroke="#7f7f7f" stroke-width="8"/>

  <rect x="146" y="146" width="608" height="52" fill="#000066"/>
  <rect x="166" y="164" width="12" height="12" fill="#00ff66"/>
  <rect x="186" y="164" width="12" height="12" fill="#ffffcc"/>
  <rect x="206" y="164" width="12" height="12" fill="#cc0000"/>
  <rect x="252" y="164" width="210" height="12" fill="#e7e7e7"/>

  <rect x="184" y="240" width="532" height="230" fill="#f3f3f3" stroke="#ffffff" stroke-width="5"/>
  <rect x="188" y="244" width="524" height="222" fill="none" stroke="#8a8a8a" stroke-width="5"/>
  <rect x="230" y="292" width="440" height="126" fill="#001a66" stroke="#000033" stroke-width="4"/>
  <path d="M250 310L450 392L650 310" stroke="#00ff66" stroke-width="9" stroke-linecap="square"/>
  <rect x="266" y="350" width="150" height="12" fill="#ffffcc"/>
  <rect x="266" y="374" width="220" height="12" fill="#ffffcc"/>

  <rect x="184" y="502" width="250" height="214" fill="#f3f3f3" stroke="#ffffff" stroke-width="5"/>
  <rect x="188" y="506" width="242" height="206" fill="none" stroke="#8a8a8a" stroke-width="5"/>
  <path d="M252 562C270 546 294 550 308 568L334 598C346 612 364 620 386 620" stroke="#cc0000" stroke-width="10" stroke-linecap="square"/>
  <rect x="236" y="654" width="34" height="18" fill="#00ff66"/>
  <rect x="282" y="654" width="34" height="18" fill="#00ff66"/>

  <rect x="466" y="502" width="250" height="214" fill="#f3f3f3" stroke="#ffffff" stroke-width="5"/>
  <rect x="470" y="506" width="242" height="206" fill="none" stroke="#8a8a8a" stroke-width="5"/>
  <rect x="508" y="550" width="166" height="14" fill="#0033cc"/>
  <rect x="508" y="578" width="130" height="12" fill="#7b8ecf"/>
  <rect x="508" y="602" width="154" height="12" fill="#7b8ecf"/>
  <rect x="508" y="634" width="188" height="14" fill="#00ff66"/>
</svg>
