<svg xmlns="http://www.w3.org/2000/svg" viewBox="0 0 1200 900" fill="none" role="img" aria-labelledby="title desc" shape-rendering="crispEdges">
  <title id="title">Retro newsroom dashboard illustration</title>
  <desc id="desc">A Web 1.0 style control board with headline blocks and a performance panel.</desc>

  <rect width="1200" height="900" fill="#001a66"/>
  <rect width="1200" height="900" fill="url(#grid)" opacity="0.28"/>

  <defs>
    <pattern id="grid" width="40" height="40" patternUnits="userSpaceOnUse">
      <path d="M0 0H40V40H0Z" fill="#001a66"/>
      <path d="M0 0H40M0 0V40" stroke="#2d4fb8" stroke-width="1"/>
      <rect x="6" y="6" width="2" height="2" fill="#00ff66"/>
    </pattern>
  </defs>

  <rect x="120" y="110" width="960" height="680" fill="#c0c0c0" stroke="#ffffff" stroke-width="8"/>
  <rect x="126" y="116" width="948" height="668" fill="none" stroke="#7f7f7f" stroke-width="8"/>

  <rect x="144" y="136" width="912" height="56" fill="#000066"/>
  <rect x="166" y="154" width="12" height="12" fill="#00ff66"/>
  <rect x="186" y="154" width="12" height="12" fill="#ffffcc"/>
  <rect x="206" y="154" width="12" height="12" fill="#cc0000"/>
  <rect x="250" y="154" width="220" height="12" fill="#e7e7e7"/>

  <rect x="170" y="230" width="530" height="420" fill="#f3f3f3" stroke="#ffffff" stroke-width="5"/>
  <rect x="174" y="234" width="522" height="412" fill="none" stroke="#8a8a8a" stroke-width="5"/>

  <rect x="205" y="278" width="460" height="24" fill="#0033cc"/>
  <rect x="205" y="322" width="390" height="14" fill="#7b8ecf"/>
  <rect x="205" y="350" width="420" height="14" fill="#7b8ecf"/>
  <rect x="205" y="378" width="360" height="14" fill="#7b8ecf"/>
  <rect x="205" y="406" width="410" height="14" fill="#7b8ecf"/>

  <rect x="740" y="230" width="286" height="420" fill="#f3f3f3" stroke="#ffffff" stroke-width="5"/>
  <rect x="744" y="234" width="278" height="412" fill="none" stroke="#8a8a8a" stroke-width="5"/>
  <rect x="770" y="278" width="226" height="20" fill="#0033cc"/>
  <rect x="770" y="316" width="160" height="12" fill="#7b8ecf"/>
  <rect x="770" y="340" width="190" height="12" fill="#7b8ecf"/>
  <rect x="770" y="364" width="142" height="12" fill="#7b8ecf"/>
  <path d="M770 548L824 504L870 526L920 474L996 508" stroke="#cc0000" stroke-width="10" stroke-linecap="square"/>
  <rect x="770" y="582" width="226" height="16" fill="#00ff66"/>

  <rect x="170" y="688" width="856" height="68" fill="#000000" stroke="#ffffff" stroke-width="4"/>
  <rect x="190" y="714" width="220" height="14" fill="#00ff66"/>
  <rect x="428" y="714" width="170" height="14" fill="#00ff66"/>
  <rect x="616" y="714" width="380" height="14" fill="#00ff66"/>
</svg>
