<svg xmlns="http://www.w3.org/2000/svg" viewBox="0 0 1200 900" fill="none" role="img" aria-labelledby="title desc" shape-rendering="crispEdges">
  <title id="title">Retro workflow illustration</title>
  <desc id="desc">Three-stage workflow boxes connected by arrows in a Web 1.0 style panel.</desc>

  <rect width="1200" height="900" fill="#001a66"/>
  <rect x="0" y="0" width="1200" height="900" fill="url(#dots)" opacity="0.25"/>

  <defs>
    <pattern id="dots" width="32" height="32" patternUnits="userSpaceOnUse">
      <rect width="32" height="32" fill="#001a66"/>
      <rect x="0" y="0" width="16" height="16" fill="#08257f"/>
      <rect x="16" y="16" width="16" height="16" fill="#08257f"/>
      <rect x="5" y="5" width="2" height="2" fill="#ffffcc"/>
    </pattern>
  </defs>

  <rect x="110" y="120" width="980" height="660" fill="#c0c0c0" stroke="#ffffff" stroke-width="8"/>
  <rect x="116" y="126" width="968" height="648" fill="none" stroke="#7f7f7f" stroke-width="8"/>

  <rect x="136" y="146" width="928" height="56" fill="#000066"/>
  <rect x="158" y="164" width="12" height="12" fill="#00ff66"/>
  <rect x="178" y="164" width="12" height="12" fill="#ffffcc"/>
  <rect x="198" y="164" width="12" height="12" fill="#cc0000"/>
  <rect x="244" y="164" width="300" height="12" fill="#e7e7e7"/>

  <rect x="184" y="276" width="250" height="280" fill="#f3f3f3" stroke="#ffffff" stroke-width="5"/>
  <rect x="475" y="276" width="250" height="280" fill="#f3f3f3" stroke="#ffffff" stroke-width="5"/>
  <rect x="766" y="276" width="250" height="280" fill="#f3f3f3" stroke="#ffffff" stroke-width="5"/>

  <rect x="188" y="280" width="242" height="272" fill="none" stroke="#8a8a8a" stroke-width="5"/>
  <rect x="479" y="280" width="242" height="272" fill="none" stroke="#8a8a8a" stroke-width="5"/>
  <rect x="770" y="280" width="242" height="272" fill="none" stroke="#8a8a8a" stroke-width="5"/>

  <rect x="214" y="326" width="190" height="18" fill="#0033cc"/>
  <rect x="505" y="326" width="190" height="18" fill="#0033cc"/>
  <rect x="796" y="326" width="190" height="18" fill="#0033cc"/>

  <rect x="214" y="362" width="152" height="12" fill="#7b8ecf"/>
  <rect x="505" y="362" width="168" height="12" fill="#7b8ecf"/>
  <rect x="796" y="362" width="172" height="12" fill="#7b8ecf"/>

  <rect x="236" y="430" width="146" height="70" fill="#000066"/>
  <rect x="527" y="430" width="146" height="70" fill="#000066"/>
  <rect x="818" y="430" width="146" height="70" fill="#000066"/>
  <rect x="250" y="456" width="118" height="16" fill="#00ff66"/>
  <rect x="541" y="456" width="118" height="16" fill="#00ff66"/>
  <rect x="832" y="456" width="118" height="16" fill="#00ff66"/>

  <path d="M434 466H475" stroke="#cc0000" stroke-width="10" stroke-linecap="square"/>
  <path d="M725 466H766" stroke="#cc0000" stroke-width="10" stroke-linecap="square"/>
  <path d="M458 466L444 455M458 466L444 477" stroke="#cc0000" stroke-width="8" stroke-linecap="square"/>
  <path d="M749 466L735 455M749 466L735 477" stroke="#cc0000" stroke-width="8" stroke-linecap="square"/>

  <rect x="184" y="620" width="832" height="88" fill="#000000" stroke="#ffffff" stroke-width="4"/>
  <rect x="214" y="656" width="190" height="14" fill="#00ff66"/>
  <rect x="428" y="656" width="160" height="14" fill="#00ff66"/>
  <rect x="612" y="656" width="186" height="14" fill="#00ff66"/>
  <rect x="822" y="656" width="164" height="14" fill="#00ff66"/>
</svg>
